<svg width="31" height="33" fill="none" xmlns="http://www.w3.org/2000/svg"><path fill-rule="evenodd" clip-rule="evenodd" d="M19.453 1.87a3.922 3.922 0 0 1-.059.18c-.619 1.593-1.216 3.239-1.616 4.884-.546 2.246-.62 4.565-.673 6.901.538.486 1.05.915 1.488 1.231.347.25.63.415.835.49a.508.508 0 0 0 .192.04c.354-.507.376-1.18.377-1.976v-.099c0-.735.001-1.572.41-2.252l.034-.062c.009-.018.02-.04.036-.068a.988.988 0 0 1 .127-.185.482.482 0 0 1 .287-.162c.14-.02.264.029.363.098.286.201.51.477.696.75.115.169.228.356.332.528.057.095.111.185.161.264l.346.543c.407.636.821 1.284 1.188 1.953.267.488.476.997.674 1.492l.055.136a17.154 17.154 0 0 0 .57 1.317l.033.053.02.032.06.098c.028.044.059.094.08.136.01.02.025.048.036.079a.336.336 0 0 1 .02.088c0 .017.013.187-.148.279-.268.153-.542.46-.832.834-.075.098-.153.201-.23.305a8.45 8.45 0 0 1-.603.748 62.163 62.163 0 0 1-1.82 1.825c.563.191 1.123.399 1.68.624 2.193.885 4.742 1.983 6.604 3.588.238.205.369.412.501.644.26.454.336.875.137 1.216-.188.322-.56.46-.897.521-.693.127-1.602-.002-2.048-.103-1.01-.228-2.016-.542-3.01-.852-.467-.146-.932-.291-1.393-.426-1.456-.426-2.906-.762-4.406-.762-.124 0-.23.055-.333.181-.11.134-.2.335-.272.582-.142.49-.178 1.072-.178 1.395 0 .104.002.209.004.315.014.739.028 1.52-.604 2.2-.119.128-.249.232-.356.317a8.944 8.944 0 0 0-.064.051c-.123.1-.211.182-.277.287a.293.293 0 0 1-.502 0 .326.326 0 0 1-.028-.058.606.606 0 0 1-.03-.121c-.01-.07-.02-.17-.028-.282a27.43 27.43 0 0 1-.046-.864 62.405 62.405 0 0 1-.043-1.438c0-.9.003-1.801.008-2.702a22.276 22.276 0 0 1-6.32 2.455c-.512.116-.896.037-1.244-.18-.241-.15-.47-.375-.707-.606l-.21-.203a144.666 144.666 0 0 1-5.682-5.714c-.134-.142-.272-.305-.41-.468l-.004-.006a14.373 14.373 0 0 0-.432-.495c-.3-.324-.599-.583-.904-.705a.32.32 0 0 1-.12-.075.293.293 0 0 1 .082-.48c.045-.019.085-.024.097-.026a1.11 1.11 0 0 1 .181-.002l.16.01c.068.004.126.008.166.008l1.708-.001c1.14-.002 2.28-.003 3.42.001 3.458.012 6.903.19 10.285.78a836.457 836.457 0 0 1 .14-6.801l.002-.068c-.247-.226-.496-.46-.745-.699-1.296-1.24-2.61-2.625-3.318-3.37-.24-.252-.409-.43-.485-.506a.29.29 0 1 1 .408-.412c.095.094.285.294.547.57.716.754 1.967 2.072 3.249 3.3l.362.343c.054-2.17.157-4.373.678-6.516.41-1.684 1.018-3.359 1.639-4.958l.007-.02.016-.051.017-.053.032-.104c.039-.122.088-.274.141-.415.05-.135.113-.286.182-.39a.575.575 0 0 1 .072-.09.374.374 0 0 1 .15-.092.325.325 0 0 1 .27.034.366.366 0 0 1 .133.15.29.29 0 0 1-.19.41 2.769 2.769 0 0 0-.074.18 8.277 8.277 0 0 0-.13.388l-.027.084Zm-2.366 12.725-.004.207a834.98 834.98 0 0 0-.128 6.26c1.451.275 2.89.629 4.312 1.082.688-.65 1.36-1.327 2.027-2.021.168-.175.34-.405.532-.66l.261-.346c.226-.291.483-.6.768-.823l-.015-.025a13.56 13.56 0 0 1-.022-.034l-.002-.002c-.02-.031-.047-.075-.061-.105-.223-.445-.407-.906-.587-1.354l-.055-.138c-.199-.496-.396-.975-.645-1.43a32.571 32.571 0 0 0-1.16-1.908l-.355-.556c-.064-.102-.124-.202-.184-.3-.095-.16-.19-.316-.298-.476a2.495 2.495 0 0 0-.484-.552c0 .002-.002.004-.003.005a3.765 3.765 0 0 0-.026.048l-.01.02a1.806 1.806 0 0 1-.045.08c-.323.54-.325 1.23-.326 2.028v.027c-.002.764-.006 1.639-.493 2.323a.551.551 0 0 1-.415.23 1.052 1.052 0 0 1-.439-.074c-.283-.103-.618-.307-.976-.564-.355-.257-.752-.58-1.167-.942Zm3.691 8.003a36.273 36.273 0 0 0-3.832-.948c-.02 1.326-.037 2.652-.048 3.977 1.39-.889 2.663-1.915 3.88-3.029Zm-3.885 3.717c-.007 1.017-.01 2.034-.01 3.05a63.184 63.184 0 0 0 .07 1.978l.019-.016c.104-.084.194-.155.28-.248.463-.499.457-1.03.448-1.782a27.897 27.897 0 0 1-.002-.339c0-.349.037-.991.2-1.556.081-.281.2-.566.379-.786.184-.228.444-.395.783-.395 1.584 0 3.097.354 4.569.785.482.14.958.29 1.431.437.982.306 1.949.608 2.937.832.42.095 1.238.204 1.815.098.298-.054.447-.15.501-.243.043-.073.082-.249-.139-.636-.122-.214-.214-.352-.377-.493-1.779-1.534-4.241-2.601-6.442-3.49a31.85 31.85 0 0 0-1.941-.71c-1.399 1.3-2.877 2.5-4.52 3.514Zm-.577-.327c.01-1.481.029-2.963.052-4.444-3.364-.596-6.804-.777-10.277-.788-1.139-.004-2.277-.003-3.416-.002l-1.242.002c.103.096.201.196.294.296.159.17.31.35.45.515.141.167.27.32.393.45a144.054 144.054 0 0 0 5.659 5.691c.093.088.176.17.252.244.223.218.39.38.573.494.211.132.438.19.81.107a21.697 21.697 0 0 0 6.452-2.565Z" fill="#000"/></svg>